<svg width="2202" height="358" viewBox="0 0 2202 358" xmlns="http://www.w3.org/2000/svg"><g fill-rule="nonzero" fill="none"><path fill="#F29541" d="M396.766667 348 387.215 348 387.215 297.267398 370 297.267398 370 289 414 289 414 297.267398 396.785 297.267398z"/><path d="M471,318.972603 C471,328.47032 468.605492,335.83105 463.834896,341.109589 C459.0643,346.388128 452.267582,349 443.573677,349 C434.879772,349 427.898861,346.388128 423.146685,341.164384 C418.394508,335.940639 416,328.525114 416,318.899543 C416,309.273973 418.394508,301.894977 423.183523,296.726027 C427.972539,291.557078 434.787676,289 443.665774,289 C452.543871,289 459.156397,291.611872 463.926993,296.853881 C468.697589,302.09589 471,309.456621 471,318.972603 Z M426.149029,318.972603 C426.149029,326.156773 427.604153,331.599696 430.514401,335.30137 C433.424648,339.003044 437.753182,340.829528 443.5,340.780822 C449.20998,340.780822 453.507814,338.954338 456.393503,335.30137 C459.279192,331.648402 460.734316,326.16895 460.758875,318.863014 C460.758875,311.715373 459.31603,306.296804 456.430342,302.607306 C453.544653,298.917808 449.246818,297.091324 443.536839,297.127854 C437.765461,297.127854 433.418509,298.954338 430.495981,302.607306 C427.604153,306.406393 426.149029,311.83105 426.149029,318.972603 Z" fill="#F29541"/><path d="M524.993791,290 L524.993791,327.655505 C525.086522,331.594931 524.139139,335.488947 522.247625,338.943039 C520.388521,342.167978 517.607383,344.75963 514.263738,346.382965 C510.36291,348.210115 506.091804,349.102826 501.787778,348.990586 C494.585912,348.990586 488.98446,347.075899 484.983424,343.246526 C480.982387,339.417152 478.987931,334.16544 479,327.491389 L479,290 L488.529797,290 L488.529797,326.81669 C488.529797,331.612525 489.639175,335.168371 491.857932,337.44776 C494.076689,339.727149 497.495757,340.857726 502.096949,340.857726 C511.044722,340.857726 515.518608,336.153067 515.518608,326.74375 L515.518608,290 L524.993791,290 Z" fill="#F29541"/><path fill="#F29541" d="M555.766667 348 546.215 348 546.215 297.267398 529 297.267398 529 289 573 289 573 297.267398 555.785 297.267398z"/><path d="M631.857868,348 L626.028426,331.664375 L603.73401,331.664375 L598.032487,348 L588,348 L609.819289,289 L620.180711,289 L642,348 L631.857868,348 Z M623.506599,323.3675 L618.024365,307.36375 C617.640609,306.275937 617.074112,304.598125 616.379695,302.293437 C615.685279,299.98875 615.191878,298.2925 614.917766,297.223125 C614.088283,300.89163 613.038633,304.505894 611.774619,308.045937 L606.511675,323.3675 L623.506599,323.3675 Z" fill="#F29541"/><path d="M670.542309,297.159783 C665.582719,296.941739 660.813506,299.097766 657.685306,302.97207 C654.557435,306.865205 653.011685,312.220551 653.011685,319.056386 C653.011685,326.196847 654.508941,331.607026 657.503453,335.286922 C660.757555,339.063336 665.582055,341.092205 670.542309,340.770212 C672.943576,340.780667 675.339199,340.535599 677.689129,340.039107 C679.998662,339.545611 682.380935,338.924171 684.872321,338.211343 L684.872321,346.399722 C679.911387,348.194599 674.668622,349.073862 669.396635,348.995146 C660.910165,348.995146 654.387706,346.405815 649.829259,341.227153 C645.270812,336.04849 642.99765,328.64605 643.009774,319.01983 C642.881675,313.534033 644.014276,308.092464 646.319497,303.118291 C648.371787,298.728059 651.717503,295.078217 655.903147,292.663486 C660.401888,290.148848 665.486991,288.886892 670.633235,289.00796 C676.303718,288.967932 681.906143,290.250519 687,292.754874 L683.59935,300.705644 C681.580243,299.751756 679.502945,298.927607 677.379979,298.238163 C675.16915,297.528889 672.863029,297.165187 670.542309,297.159783 Z" fill="#F29541"/><path fill="#F29541" d="M740 348 730.42352 348 730.42352 321.412097 703.539928 321.412097 703.539928 348 694 348 694 289 703.539928 289 703.539928 313.036352 730.42352 313.036352 730.42352 289 740 289z"/><path fill="#F29541" d="M784 348 751 348 751 289 784 289 784 297.15387 760.514665 297.15387 760.514665 313.221247 782.429441 313.221247 782.429441 321.319649 760.514665 321.319649 760.514665 339.809151 784 339.809151z"/><path fill="#F29541" d="M812.766667 348 803.196667 348 803.196667 297.267398 786 297.267398 786 289 830 289 830 297.267398 812.785 297.267398z"/><path fill="#F29541" d="M868 348 835 348 835 289 868 289 868 297.15387 844.54349 297.15387 844.54349 313.221247 866.482548 313.221247 866.482548 321.319649 844.54349 321.319649 844.54349 339.809151 868 339.809151z"/><path d="M886.593985,324.414787 L886.593985,347.981516 L877,347.981516 L877,289 L893.541353,289 C901.101365,289 906.700919,290.423246 910.340017,293.269737 C914.015873,296.134712 915.853801,300.422932 915.853801,306.208333 C915.853801,313.601817 912.055416,318.832707 904.458647,321.901003 L921,348 L910.101086,348 L896.059315,324.433271 L886.593985,324.414787 Z M886.593985,316.429825 L893.247285,316.429825 C897.707324,316.429825 900.942077,315.598058 902.951546,313.934524 C905.039104,312.071408 906.151961,309.341699 905.965748,306.54104 C906.215774,303.740644 904.979437,301.015084 902.712615,299.369361 C899.729762,297.711755 896.334845,296.954469 892.934837,297.188283 L886.593985,297.188283 L886.593985,316.429825 Z" fill="#F29541"/><path d="M934,339 C932.134133,345.499792 929.775744,351.851125 926.944882,358 L920,358 C921.721335,351.407376 923.101087,344.732003 924.133858,338 L933.32021,338 L934,339 Z" fill="#F29541"/><path fill="#F29541" d="M980.766667 348 971.196667 348 971.196667 297.267398 954 297.267398 954 289 998 289 998 297.267398 980.803333 297.267398z"/><path d="M1055,318.972603 C1055,328.47032 1052.60629,335.83105 1047.81888,341.109589 C1043.03147,346.388128 1036.27385,349 1027.56445,349 C1018.85504,349 1011.87646,346.388128 1007.12588,341.164384 C1002.37529,335.940639 1000,328.525114 1000,318.899543 C1000,309.273973 1002.39371,301.894977 1007.16271,296.726027 C1011.9317,291.557078 1018.78139,289 1027.6381,289 C1036.49481,289 1043.12354,291.611872 1047.89253,296.853881 C1052.66153,302.09589 1055,309.456621 1055,318.972603 Z M1010.14563,318.972603 C1010.14563,326.156773 1011.60641,331.599696 1014.52795,335.30137 C1017.4495,339.003044 1021.7459,340.829528 1027.41714,340.780822 C1033.12521,340.780822 1037.4216,338.954338 1040.30633,335.30137 C1043.19105,331.648402 1044.63955,326.16895 1044.65182,318.863014 C1044.65182,311.715373 1043.2156,306.296804 1040.34315,302.607306 C1037.47071,298.917808 1033.17431,297.091324 1027.45397,297.127854 C1021.68452,297.127854 1017.33902,298.954338 1014.41748,302.607306 C1011.49593,306.260274 1010.07198,311.715373 1010.14563,318.972603 Z" fill="#F29541"/><path d="M1108.99462,290 L1108.99462,327.655688 C1109.0809,331.596689 1108.12763,335.490603 1106.23131,338.943277 C1104.37949,342.166938 1101.60555,344.758775 1098.2686,346.383239 C1094.36224,348.208723 1090.08725,349.101285 1085.77916,348.990872 C1078.58,348.990872 1072.98671,347.076176 1068.9993,343.246784 C1065.01189,339.417392 1063.01212,334.165654 1063,327.491571 L1063,290 L1072.52616,290 L1072.52616,326.816869 C1072.52616,331.612726 1073.63512,335.16859 1075.85304,337.44799 C1078.07097,339.72739 1081.48875,340.857973 1086.10639,340.857973 C1095.03868,340.857973 1099.50482,336.153291 1099.50482,326.743928 L1099.50482,290 L1108.99462,290 Z" fill="#F29541"/><path fill="#F29541" d="M1139.76667 348 1130.19667 348 1130.19667 297.267398 1113 297.267398 1113 289 1157 289 1157 297.267398 1139.76667 297.267398z"/><path d="M1213.07875,289 L1223,289 L1202.4973,348 L1192.411,348 L1172,289 L1181.8479,289 L1194.00647,325.683171 C1194.64833,327.439674 1195.32686,329.676904 1196.04207,332.450329 C1196.75728,335.223754 1197.23409,337.257599 1197.45415,338.588844 C1197.78425,336.554998 1198.33441,334.188342 1199.04962,331.488875 C1199.76483,328.789408 1200.35167,326.811031 1200.8835,325.516766 L1213.07875,289 Z" fill="#F29541"/><path fill="#F29541" d="M1259 348 1226 348 1226 289 1259 289 1259 297.15387 1235.52521 297.15387 1235.52521 313.221247 1257.46427 313.221247 1257.46427 321.319649 1235.52521 321.319649 1235.52521 339.809151 1259 339.809151z"/><path d="M1317,348 L1305.22009,348 L1276.29571,300.981197 L1275.98232,300.981197 L1276.1851,303.606706 C1276.5538,308.617361 1276.75658,313.184268 1276.75658,317.325917 L1276.75658,348 L1268,348 L1268,289 L1279.6693,289 L1308.51994,335.778439 L1308.75959,335.778439 C1308.75959,335.149796 1308.64898,332.894077 1308.42777,329.011282 C1308.28029,325.128486 1308.18811,322.096208 1308.18811,319.914447 L1308.18811,289 L1317,289 L1317,348 Z" fill="#F29541"/><path d="M1376,317.93607 C1376,327.686201 1373.29942,335.131307 1367.89827,340.271388 C1362.49711,345.41147 1354.70366,347.987674 1344.51792,348 L1328,348 L1328,289 L1346.25665,289 C1355.65318,289 1362.95954,291.526899 1368.17572,296.580696 C1373.39191,301.634493 1376,308.752951 1376,317.93607 Z M1365.82659,318.250392 C1365.82659,304.149065 1359.22312,297.092239 1346.01618,297.079912 L1337.65549,297.079912 L1337.65549,339.809151 L1344.51792,339.809151 C1358.7237,339.809151 1365.82659,332.622898 1365.82659,318.250392 L1365.82659,318.250392 Z" fill="#F29541"/><path d="M1393.59398,324.414787 L1393.59398,347.981516 L1384,347.981516 L1384,289 L1400.54135,289 C1408.10136,289 1413.70092,290.423246 1417.34002,293.269737 C1421.01587,296.134712 1422.8538,300.422932 1422.8538,306.208333 C1422.8538,313.601817 1419.05542,318.832707 1411.45865,321.901003 L1428,348 L1417.08271,348 L1403.04094,324.433271 L1393.59398,324.414787 Z M1393.59398,316.429825 L1400.24728,316.429825 C1404.71958,316.429825 1407.95433,315.598058 1409.95155,313.934524 C1412.0391,312.071408 1413.15196,309.341699 1412.96575,306.54104 C1413.21577,303.740644 1411.97944,301.015084 1409.71261,299.369361 C1406.72976,297.711755 1403.33484,296.954469 1399.93484,297.188283 L1393.59398,297.188283 L1393.59398,316.429825 Z" fill="#F29541"/><path fill="#F29541" d="M1466 348 1433 348 1433 289 1466 289 1466 297.15387 1442.52521 297.15387 1442.52521 313.221247 1464.46427 313.221247 1464.46427 321.319649 1442.52521 321.319649 1442.52521 339.809151 1466 339.809151z"/><path d="M1483,339 C1481.13413,345.499792 1478.77574,351.851125 1475.94488,358 L1469,358 C1470.73905,351.411444 1472.11899,344.735147 1473.13386,338 L1482.32021,338 L1483,339 Z" fill="#F29541"/><path fill="#F29541" d="M1529.76667 348 1520.215 348 1520.215 297.267398 1503 297.267398 1503 289 1547 289 1547 297.267398 1529.76667 297.267398z"/><path d="M1604,318.972603 C1604,328.47032 1601.60549,335.83105 1596.8349,341.109589 C1592.0643,346.388128 1585.26758,349 1576.57368,349 C1567.87977,349 1560.89886,346.388128 1556.12827,341.164384 C1551.35767,335.940639 1549,328.525114 1549,318.899543 C1549,309.273973 1551.39451,301.894977 1556.18352,296.726027 C1560.97254,291.557078 1567.78768,289 1576.66577,289 C1585.54387,289 1592.1564,291.611872 1596.92699,296.853881 C1601.69759,302.09589 1604,309.456621 1604,318.972603 Z M1559.13061,318.972603 C1559.13061,326.150685 1560.60415,331.593607 1563.5144,335.30137 C1566.42465,339.009132 1570.7716,340.780822 1576.4079,340.780822 C1582.04421,340.780822 1586.428,338.954338 1589.30141,335.30137 C1592.17482,331.648402 1593.66678,326.16895 1593.66678,318.863014 C1593.66678,311.557078 1592.21165,306.296804 1589.33825,302.607306 C1586.46484,298.917808 1582.15472,297.127854 1576.44474,297.127854 C1570.73476,297.127854 1566.33255,298.954338 1563.38547,302.607306 C1560.43838,306.260274 1559.13061,311.83105 1559.13061,318.972603 Z" fill="#F29541"/><path d="M1657.99354,290 L1657.99354,327.655488 C1658.08856,331.597423 1657.13439,335.493563 1655.2292,338.943017 C1653.37669,342.166661 1650.60172,344.758485 1647.26353,346.382939 C1643.35635,348.210315 1639.07931,349.102967 1634.76944,348.990559 C1627.57973,348.990559 1621.98436,347.075873 1617.98334,343.246501 C1613.98232,339.435365 1612,334.12895 1612,327.491372 L1612,290 L1621.51151,290 L1621.51151,326.816673 C1621.51151,331.612505 1622.63907,335.16835 1624.85782,337.447738 C1627.07657,339.727126 1630.49562,340.857703 1635.09679,340.857703 C1644.04453,340.857703 1648.5184,336.153046 1648.5184,326.743733 L1648.5184,290 L1657.99354,290 Z" fill="#F29541"/><path fill="#F29541" d="M1689.76667 348 1680.215 348 1680.215 297.267398 1663 297.267398 1663 289 1707 289 1707 297.267398 1689.785 297.267398z"/><path d="M1762.98526,332.343135 C1763.19964,337.078835 1761.06503,341.622798 1757.25865,344.533449 C1753.45331,347.494215 1748.19152,348.974598 1741.4733,348.974598 C1735.81726,349.180633 1730.1867,348.131164 1725,345.904174 L1725,336.875665 C1727.76168,338.158278 1730.65341,339.1507 1733.6271,339.836431 C1736.40697,340.5202 1739.25865,340.882092 1742.12405,340.914735 C1745.12104,341.139177 1748.10919,340.380757 1750.62099,338.758128 C1752.42248,337.36793 1753.43845,335.214321 1753.35415,332.96453 C1753.35615,330.867624 1752.44203,328.87083 1750.84411,327.48163 C1747.69237,325.131392 1744.18533,323.281304 1740.45069,321.99873 C1736.07468,320.545257 1732.14199,318.030958 1729.01606,314.688197 C1726.77426,311.836053 1725.59911,308.312526 1725.68794,304.709318 C1725.4837,300.269167 1727.44499,295.999277 1730.96832,293.213505 C1735.05055,290.252252 1740.05068,288.773231 1745.1175,289.028224 C1750.97452,289.05923 1756.75897,290.304787 1762.0928,292.683491 L1759.00638,300.469209 C1754.56346,298.468508 1749.76007,297.356445 1744.87579,297.197745 C1742.32864,297.014163 1739.79806,297.726727 1737.73613,299.208142 C1736.12788,300.512804 1735.22783,302.478095 1735.30046,304.526555 C1735.2629,305.888093 1735.60359,307.233944 1736.28588,308.419414 C1737.09548,309.66775 1738.19057,310.712906 1739.48386,311.471562 C1742.05358,312.942528 1744.73963,314.207684 1747.51598,315.254763 C1750.90167,316.530317 1754.11704,318.205755 1757.09132,320.244202 C1758.97614,321.614893 1760.51029,323.398251 1761.5722,325.452957 C1762.56755,327.614992 1763.05071,329.970894 1762.98526,332.343135 L1762.98526,332.343135 Z" fill="#F29541"/><path fill="#F29541" d="M1770 348 1770 289 1780 289 1780 348z"/><path d="M1816.16717,348 L1799.27964,298.725478 L1798.9696,298.725478 C1799.43161,306.047321 1799.65653,312.906926 1799.64438,319.304293 L1799.64438,348 L1791,348 L1791,289 L1804.42249,289 L1820.58055,335.926355 L1820.81763,335.926355 L1837.46809,289 L1851,289 L1851,348 L1841.88146,348 L1841.88146,318.823566 C1841.88146,315.883736 1841.88146,312.074898 1842.1003,307.360075 C1842.31915,302.645252 1842.37386,299.797869 1842.48328,298.799436 L1842.17325,298.799436 L1824.68389,348 L1816.16717,348 Z" fill="#F29541"/><path d="M1900.96861,306.842369 C1901.29562,312.256046 1899.0531,317.506547 1894.91953,321.005327 C1890.89911,324.271806 1885.16969,325.911209 1877.73129,325.923535 L1871.62689,325.923535 L1871.62689,348 L1862,348 L1862,289 L1878.94849,289 C1886.32541,289 1891.85811,290.516139 1895.54657,293.511438 C1899.23503,296.506738 1900.96861,300.981197 1900.96861,306.842369 Z M1871.62689,317.806644 L1876.73541,317.806644 C1881.65336,317.806644 1885.2742,316.949963 1887.59793,315.236603 C1890.01255,313.281754 1891.30983,310.258538 1891.06509,307.156691 C1891.26642,304.283906 1890.12091,301.481144 1887.96678,299.575995 C1885.90124,297.91194 1882.67998,297.079912 1878.30301,297.079912 L1871.62689,297.079912 L1871.62689,317.806644 Z" fill="#F29541"/><path fill="#F29541" d="M1909 347.926135 1909 289 1918.46261 289 1918.46261 339.74554 1943 339.74554 1943 348z"/><path fill="#F29541" d="M1982 348 1949 348 1949 289 1982 289 1982 297.15387 1958.47833 297.15387 1958.47833 313.221247 1980.47833 313.221247 1980.47833 321.319649 1958.47833 321.319649 1958.47833 339.809151 1982 339.809151z"/><path d="M2016.18721,348 L1999.29224,298.725478 L1998.98174,298.725478 C1999.42009,306.121279 1999.65753,312.906926 1999.65753,319.304293 L1999.65753,348 L1991,348 L1991,289 L2004.44292,289 L2020.62557,335.926355 L2020.86301,335.926355 L2037.52055,289 L2051,289 L2051,348 L2041.86758,348 L2041.86758,318.823566 C2041.86758,315.883736 2041.86758,312.074898 2042.08676,307.360075 C2042.30594,302.645252 2042.36073,299.797869 2042.47032,298.799436 L2042.14155,298.799436 L2024.64384,348 L2016.18721,348 Z" fill="#F29541"/><path fill="#F29541" d="M2096 348 2063 348 2063 289 2096 289 2096 297.15387 2072.52521 297.15387 2072.52521 313.221247 2094.46427 313.221247 2094.46427 321.319649 2072.52521 321.319649 2072.52521 339.809151 2096 339.809151z"/><path d="M2153,348 L2141.20166,348 L2112.27728,300.981197 L2111.96388,300.981197 L2112.16667,303.606706 C2112.53536,308.617361 2112.73815,313.184268 2112.73815,317.325917 L2112.73815,348 L2104,348 L2104,289 L2115.6693,289 L2144.51994,335.778439 L2144.75959,335.778439 C2144.75959,335.149796 2144.64898,332.894077 2144.42777,329.011282 C2144.28029,325.128486 2144.18811,322.096208 2144.18811,319.914447 L2144.18811,289 L2153,289 L2153,348 Z" fill="#F29541"/><path fill="#F29541" d="M2184.80333 348 2175.23333 348 2175.23333 297.267398 2158 297.267398 2158 289 2202 289 2202 297.267398 2184.80333 297.267398z"/><path d="M313.285523,178.150662 C315.619822,163.352882 315.570159,148.273592 313.138442,133.491693 C308.578935,132.696523 296.00352,131.64246 281.093197,141.221485 C265.447469,151.188849 254.306092,176.94866 250.242983,187.544764 L249.452424,189.615904 L249.360498,189.615904 L249.047951,190.485044 C248.735404,191.261721 248.386087,192.093876 248,193 C258.644978,183.753837 268.646478,177.8178 277.783877,175.580228 C294.882029,171.456439 307.034586,175.210382 313.285523,178.150662 Z" fill="#F29541"/><path d="M269.52652,131.998689 C267.812096,136.368525 265.839586,140.775082 263.738034,145.089836 L263.535252,145.49377 C261.378396,149.845246 258.963454,154.196721 256.364166,158.474754 L255,160.714754 C255,161.15541 255,161.577705 255,162 C262.097348,149.698361 269.747736,140.940328 277.65621,135.909508 C292.403946,126.582295 305.105433,126.325246 312,127.243279 C306.34539,98.2610647 292.54316,71.4741967 272.199547,50 C281.656533,72.5836066 280.992885,102.566557 269.52652,131.998689 Z" fill="#F29541"/><path d="M248.732981,29.0069494 L248.622952,28.9147639 C242.992524,24.8927135 237.105549,21.2466192 231,18 L231.568482,18.6637356 C232.228655,19.4196568 232.687109,19.9727698 233.145562,20.5074458 C233.604016,21.0421217 234.135822,21.7242944 234.612613,22.3511559 L235.107743,22.9964544 C252.253904,45.8400227 258.947325,79.5061693 253.537573,115.329457 L253.005767,118.55595 C252.418947,122.058999 251.740436,125.469862 250.988572,128.714792 C252.864347,135.00006 254.093333,141.462343 254.6562,148 C282.493496,96.6157992 274.094628,47.720607 248.732981,29.0069494 Z" fill="#F29541"/><path d="M186.555067,3 C185.496616,4.93344494 184.633653,6.96855762 183.979107,9.07484839 C183.577184,10.3962656 183.303146,11.4056815 183.047377,12.4701564 L182.919493,13.130865 C181.491932,20.5289284 181.729129,28.154049 183.613723,35.4481328 C189.094489,57.7470476 219.330046,81.1104373 219.640623,81.3306735 C229.296491,89.6386492 237.315287,99.6925567 243.280992,110.970795 C244.523299,113.246569 245.692529,115.595755 246.788682,118 L247.281951,114.971752 C250.077196,97.2770311 249.456946,79.2072664 245.455029,61.7480051 C241.801186,46.3314714 235.132921,32.9521226 226.327157,23.0231408 L225.212735,21.8301947 C220.152577,16.2934375 214.015481,11.8584583 207.181015,8.79955314 L207.181015,8.79955314 C207.181015,8.79955314 194.264678,4.63341845 187.578143,3.29364826 C187.267567,3.14682413 186.920452,3.07341207 186.555067,3 Z" fill="#61B360"/><path d="M138.402123,26.4134159 C139.518561,28.7849062 140.798246,31.076777 142.232037,33.2726581 C142.525236,33.7469674 142.83676,34.203034 143.166609,34.6591007 L147.931094,40.1319003 L149.21384,41.3541589 C150.001812,42.0838655 150.58821,42.5946602 151.156284,43.1784255 L152.988778,44.674324 C168.784879,57.2800059 191.141309,64.8507121 191.361208,64.9236827 L194,66 C184.690929,55.5104673 178.863597,45.659428 176.646279,36.6475512 C172.468192,19.8278136 176.151506,7.89711036 179.175121,1.71284676 C164.358978,-0.607095735 149.266764,-0.570150362 134.462261,1.82230275 C134.352311,2.36958271 134.260686,3.02631867 134.169062,3.79251062 C133.587881,10.2327855 134.509794,16.7196404 136.862828,22.7466401 L138.402123,26.4134159 Z" fill="#61B360"/><path d="M50,42.1247953 C68.4039088,34.6043236 91.0959283,33.5221094 114.413681,39.0248935 C118.775407,40.0704225 123.155537,41.3177203 127.462052,42.7851294 C129.302443,43.3904356 130.995603,43.9957419 132.72557,44.6193908 C135.50456,45.6832624 138.246743,46.7654766 140.841694,47.9577465 C142.682085,48.7097936 144.301629,49.5168687 146.013192,50.3422863 L146.436482,50.544055 C150.816612,52.6901408 155.23355,55.056338 159.558469,57.6426466 L161.803746,59 C162.208632,59 162.613518,59 163,59 C159.336743,56.9389124 155.797185,54.6666862 152.399349,52.1948903 C146.42707,48.0353893 141.258361,42.8341816 137.142508,36.8421225 C127.719707,22.1680314 127.259609,9.78676711 128.050977,3 C98.8688082,8.49235927 71.8232377,22.0495554 50,42.1247953 Z" fill="#61B360"/><path d="M27.8119899,76.3053676 L29.305235,75.3437077 C50.9849423,61.5660803 80.2599212,56.0550293 111.710245,59.7907082 L116.300591,60.3824989 C121.075288,61.0667569 125.886856,61.9729364 130.587813,63.0455571 C136.924885,61.2144374 143.427489,60.0188307 150,59.4763194 C128.744301,48.0288678 106.788066,42 86.0854208,42 C61.4929637,42 41.0484098,50.5069914 30.0242049,65.3572395 L29.9320293,65.4682003 C25.9100519,71.0662215 22.2582125,76.9227112 19,83 C21.7798925,80.5672391 24.7242541,78.330353 27.8119899,76.3053676 L27.8119899,76.3053676 Z" fill="#61B360"/><path d="M3,127.607655 C7.09692746,129.804966 18.5242319,134.495027 35.6651885,130.340446 C54.7535635,125.687315 74.7421603,103.271042 80.4190687,96.5129233 L82.0725372,94.4633299 C90.4705217,84.7384501 100.609658,76.6838186 111.963573,70.717591 C114.223313,69.4989139 116.574913,68.3356312 119,67.2462077 C117.775209,67.02463 116.507549,66.8215172 115.197022,66.6368691 L114.462148,66.5260803 L113.617041,66.4152915 C102.598484,64.8960368 91.4471411,64.5988147 80.3639531,65.5289809 C59.2363003,67.3754613 40.0560659,74.2997631 26.3690212,85.0093499 L25.1381058,85.9879846 C18.5325594,91.2605375 13.1633083,97.9304008 9.41178334,105.523748 L9.41178334,105.523748 C9.08108964,106.206946 8.78713969,106.908608 8.49318974,107.610271 L7.81343047,109.345963 C7.61133988,109.881442 7.40924929,110.435386 7.24390244,110.98933 C5.61189849,116.11151 4.26257364,121.32036 3.20209059,126.59209 C3.1286031,126.942922 3.07348749,127.256823 3,127.607655 Z" fill="#487FC1"/><path d="M1.79967362,178.509649 C6.35708087,179.301883 18.9450808,180.352053 33.8301609,170.826824 C49.5789432,160.822571 60.7151884,135.286851 64.739673,124.711452 L65.5298686,122.684808 L65.5298686,122.684808 C65.7503883,122.095239 65.8606482,121.763606 65.8790248,121.708334 C66.2098044,120.879252 66.5773372,119.976474 67,119 C56.3415475,128.39626 46.3079009,134.218257 37.1563331,136.447566 C32.3452696,137.639492 27.4106927,138.257905 22.4550194,138.28997 C15.3335135,138.373917 8.28109095,136.883049 1.79967362,133.923472 C-0.599891207,148.688175 -0.599891207,163.744946 1.79967362,178.509649 L1.79967362,178.509649 Z" fill="#487FC1"/><path d="M38.3805825,248.967731 C38.0669903,247.492591 37.8087379,245.999012 37.5504854,244.486994 L37.1815534,242.034574 C37.0339806,241.001976 36.9048544,239.950938 36.7941748,238.881462 C34.9495146,221.73296 36.5174757,194.387554 54.4475728,161.436615 L54.761165,160.883438 C55.5359223,159.463615 56.1446602,158.394139 56.7533981,157.324662 C57.3621359,156.255186 57.8048544,155.480738 58.3398058,154.669411 L60,151.940402 C60,151.626934 60,151.313467 60,151 C53.0271845,163.225222 45.5009709,171.946987 37.5873786,176.962463 C29.0044175,182.646739 18.9757999,185.76224 8.6815534,185.942377 C6.78103739,185.944358 4.8826588,185.814974 3,185.555153 C8.64368941,214.601742 22.4079905,241.454448 42.6970874,263 C40.84805,258.458631 39.4036106,253.762989 38.3805825,248.967731 L38.3805825,248.967731 Z" fill="#487FC1"/><path d="M84,293 C61.6162932,268.342273 53.7552388,226.641975 63.959847,183.166028 C62.1164412,176.91384 60.9169983,170.492306 60.3799302,164 L60.3799302,164 C55.3728467,173.131116 51.3108739,182.741812 48.2561913,192.684972 C39.9522605,220.143465 41.5576871,247.748404 52.5742353,266.694764 L53.6445197,268.52533 C55.8694748,272.060973 58.5149699,275.318358 61.5240273,278.227331 L61.5240273,278.227331 C62.5943118,279.252448 63.7015025,280.222648 64.8455997,281.119625 L66.2480413,282.181354 C71.9221254,286.166352 77.8520149,289.780228 84,293 L84,293 Z" fill="#487FC1"/><path d="M112.110467,304.87123 C117.118499,306.45299 122.208829,307.757797 127.358618,308.779799 L128.416504,309 C130.678191,304.944631 135.529876,293.585926 131.371289,276.557045 C127.212703,259.528163 108.243711,241.545077 100.273087,234.627094 C98.9598491,233.489389 97.8654842,232.590235 97.0447105,231.929631 L95.4761208,230.663475 C85.795139,222.368316 77.7515337,212.315051 71.7648816,201.028084 C70.5428408,198.752673 69.3755183,196.422212 68.262914,194 C58.41363,251.747726 82.1248692,295.365885 112.110467,304.87123 Z" fill="#8A368C"/><path d="M170.818406,277.249436 L166.02491,271.767079 C165.620861,271.346765 165.180079,270.926451 164.739298,270.524411 C163.949565,269.793431 163.380223,269.281744 162.792514,268.788332 C162.204806,268.29492 161.598732,267.764958 160.955926,267.289821 C145.069434,254.607301 122.736517,247.078197 122.516126,247.005099 L120,246 C129.311504,256.471302 135.151856,266.339545 137.374128,275.330611 C141.543184,292.197997 137.778178,304.167811 134.747806,310.3446 C149.585107,312.62307 164.69144,312.549055 179.505471,310.125305 C180.31357,305.648047 181.342059,293.312743 171.755067,278.620026 C171.461212,278.163163 171.130627,277.7063 170.818406,277.249436 Z" fill="#8A368C"/><path d="M265,269.865925 C255.317337,273.734955 245.033244,275.903588 234.605246,276.275343 L234.071359,276.275343 C232.764255,276.275343 231.438742,276.366906 230.113229,276.366906 L229.450472,276.366906 C227.97768,276.366906 226.688987,276.366906 225.381883,276.366906 L224.903226,276.366906 C223.559303,276.366906 222.21538,276.238718 220.834637,276.147155 C216.11628,275.791398 211.420925,275.180071 206.769469,274.315893 L206.198762,274.206017 L202.295862,273.363636 L200.841479,273.015697 L197.730205,272.264879 L195.889215,271.770438 L193.109319,270.982995 L191.268328,270.396991 L188.543662,269.517986 L186.352884,268.785481 L183.701857,267.86985 L164.168948,259.207979 L162.125448,258.145847 L160.173998,257.04709 C157.85435,255.765206 155.516292,254.428385 153.196644,253 L152,253 C155.686212,255.104625 159.245411,257.422083 162.659335,259.940484 C168.617512,264.070507 173.775543,269.238506 177.884327,275.194899 C187.328609,289.844997 187.770446,302.22433 186.97882,309 C216.158841,303.486035 243.19369,289.925822 265,269.865925 Z" fill="#8A368C"/><path d="M184.406725,248.962311 C178.074487,250.802142 171.572669,251.999064 165,252.534902 C171.82391,256.213622 178.907556,259.389519 186.194429,262.037257 L197.65785,265.72034 L198.468768,265.92291 L200.311761,266.401711 L200.86466,266.530619 L212.60453,268.81413 C243.732696,273.307492 271.432893,264.8364 284.942037,246.715631 L284.942037,246.586723 C289.010539,240.973487 292.704525,235.098524 296,229 C274.031514,248.299356 234.388717,260.398285 184.406725,248.962311 Z" fill="#8A368C"/><path d="M279.242952,181.621099 C261.569211,185.902074 243.160596,205.506369 236.069053,213.774348 C235.407666,214.546026 234.838137,215.225837 234.378841,215.795409 L232.927463,217.632738 C224.521187,227.303371 214.376047,235.311668 203.018055,241.242409 C200.758315,242.455046 198.406715,243.630936 196,244.71496 C254.257206,254.618161 298.25784,230.916623 307.866329,200.894675 C309.445062,195.884356 310.757426,190.793955 311.797909,185.644848 C311.797909,185.314129 311.926513,184.965037 312,184.615944 C307.97656,182.337657 296.49414,177.468736 279.242952,181.621099 Z" fill="#F29541"/><path fill="#F29541" d="M464.944796 238 366 238 366 66 464.944796 66 464.944796 95.9218499 402.37974 95.9218499 402.37974 133.669414 460.54684 133.669414 460.54684 163.591264 402.434944 163.591264 402.434944 207.930843 465 207.930843z"/><path fill="#F29541" d="M627 238 585.606144 238 545.716185 172.963708 505.899587 238 467 238 523.854654 149.320844 470.631362 66 510.686382 66 547.586887 127.850765 583.772123 66 622.891793 66 569.099954 151.309496z"/><path d="M755,119.663705 C755,138.159121 749.255504,152.309893 737.766512,162.116023 C726.277519,171.922152 709.940465,176.831353 688.755349,176.843626 L673.223256,176.843626 L673.223256,238 L637,238 L637,66 L691.554419,66 C712.288269,66 728.045995,70.4857826 738.827597,79.4573477 C749.609199,88.4289129 755,101.831032 755,119.663705 Z M673.223256,147.00182 L685.133023,147.00182 C696.26832,147.00182 704.604548,144.786543 710.141705,140.355988 C715.678863,135.925434 718.441344,129.482108 718.429187,121.026009 C718.429187,112.434907 716.111835,106.120447 711.477209,102.082629 C706.842584,98.0448107 699.579638,96.0074922 689.688372,95.9706732 L673.223256,95.9706732 L673.223256,147.00182 Z" fill="#F29541"/><path d="M880.762633,238 L868.308954,197.21971 L805.764628,197.21971 L793.310949,238 L754,238 L814.61281,66 L859.14805,66 L920,238 L880.762633,238 Z M859.62633,166.749147 C848.110816,129.802901 841.629507,108.908276 840.182402,104.065273 C838.735298,99.2222696 837.692893,95.4004551 837.055186,92.5998294 C834.479832,102.603811 827.078753,127.32025 814.85195,166.749147 L859.62633,166.749147 Z" fill="#F29541"/><path fill="#F29541" d="M995.529996 238 959.305347 238 959.305347 96.4005995 913 96.4005995 913 66 1042 66 1042 96.4005995 995.529996 96.4005995z"/><path fill="#F29541" d="M1042 188 1042 159 1105 159 1105 188z"/><path d="M1263.99987,150.37041 C1263.99987,178.678014 1255.98358,200.356778 1239.95125,215.406702 C1223.91892,230.456625 1200.75636,237.987724 1170.46358,238 L1122,238 L1122,66 L1175.74251,66 C1203.65245,66 1225.34863,73.4267566 1240.83107,88.2802698 C1256.31351,103.133783 1264.0364,123.830496 1263.99987,150.37041 Z M1226.314,151.309496 C1226.314,114.396674 1210.08004,95.9341255 1177.61214,95.9218499 L1158.29269,95.9218499 L1158.29269,207.894016 L1173.85456,207.894016 C1208.82752,207.894016 1226.314,189.032509 1226.314,151.309496 Z" fill="#F29541"/><path d="M1392.71082,238 L1380.26404,197.21971 L1317.75435,197.21971 L1305.30756,238 L1266,238 L1326.67117,66 L1371.18175,66 L1432,238 L1392.71082,238 Z M1371.56784,166.749147 C1360.0587,129.802901 1353.58098,108.908276 1352.13468,104.065273 C1350.68837,99.2222696 1349.65267,95.4004551 1349.02758,92.5998294 C1346.42914,102.603811 1339.03216,127.32025 1326.83664,166.749147 L1371.56784,166.749147 Z" fill="#F29541"/><path fill="#F29541" d="M1579 238 1537.69738 238 1492.75689 165.54309 1477.37864 176.591157 1477.37864 237.981587 1441 237.981587 1441 66 1477.37864 66 1477.37864 144.735896 1491.69125 124.481105 1538.1567 66 1578.57742 66 1518.68127 142.1396z"/><path d="M1693.69244,238 L1681.24565,197.21971 L1618.73596,197.21971 L1606.28918,238 L1567,238 L1627.67117,66 L1672.18175,66 L1733,238 L1693.69244,238 Z M1672.56784,166.749147 C1661.0587,129.802901 1654.58098,108.908276 1653.13468,104.065273 C1651.68837,99.2222696 1650.64655,95.4004551 1650.00919,92.5998294 C1647.43526,102.603811 1640.03828,127.32025 1627.81825,166.749147 L1672.56784,166.749147 Z" fill="#F29541"/><path d="M1779.34357,172.024623 L1779.34357,238 L1743,238 L1743,66 L1792.95174,66 C1816.21358,66 1833.45795,70.253506 1844.68485,78.7605181 C1855.91175,87.2675302 1861.50071,100.156943 1861.45174,117.428755 C1861.59694,127.08268 1858.6842,136.533964 1853.13257,144.422867 C1847.14515,152.700741 1838.99046,159.156444 1829.57078,163.075688 C1855.36693,201.719373 1872.17668,226.694144 1880,238 L1839.59786,238 L1798.69987,172.024623 L1779.34357,172.024623 Z M1779.34357,142.378974 L1791.00509,142.378974 C1802.50134,142.378974 1810.98579,140.457838 1816.45845,136.615566 C1821.9311,132.773293 1824.66743,126.739821 1824.66743,118.515148 C1824.66743,110.364129 1821.87601,104.557756 1816.29316,101.096028 C1810.71032,97.6343004 1802.04835,95.9095743 1790.30724,95.9217848 L1779.28847,95.9217848 L1779.34357,142.378974 Z" fill="#F29541"/><path d="M1894.01968,228.023695 C1893.83393,224.989128 1894.96984,222.022467 1897.1351,219.887125 C1899.6927,217.819302 1902.94041,216.799133 1906.22173,217.032839 C1909.39309,216.818225 1912.52411,217.841413 1914.95603,219.887125 C1917.07098,222.04911 1918.16947,225.006059 1917.97872,228.023695 C1918.1525,231.034513 1917.01679,233.973641 1914.8633,236.086128 C1912.46159,238.124058 1909.36699,239.159471 1906.22173,238.977483 C1902.98803,239.16808 1899.79988,238.143386 1897.28345,236.104662 C1895.03364,234.039571 1893.83472,231.07111 1894.01968,228.023695 Z" fill="#487FC1"/><path d="M1963.06019,171.310201 C1958.03121,171.142563 1953.285,173.621874 1950.56793,177.835872 C1947.57959,182.186319 1946.07929,188.187987 1946.06705,195.840875 C1946.06705,211.768142 1952.14784,219.725683 1964.30942,219.713497 C1967.92943,219.721244 1971.53125,219.20399 1975.00132,218.178045 C1978.5282,217.138186 1981.9988,215.917951 1985.39929,214.522207 L1985.39929,233.404611 C1977.96468,236.557909 1969.94693,238.121062 1961.86608,237.992687 C1949.33708,237.992687 1939.72294,234.373408 1933.02366,227.134848 C1926.32438,219.896289 1922.98698,209.434499 1923.01148,195.749479 C1922.84432,187.957778 1924.5049,180.234576 1927.86141,173.192958 C1930.91017,166.927373 1935.78089,161.717978 1941.84172,158.24058 C1948.3943,154.63367 1955.79445,152.829155 1963.28064,153.012732 C1972.18608,153.001042 1980.97874,154.994503 1989,158.843793 L1982.07414,176.391816 C1979.09136,174.9851 1976.02363,173.764135 1972.88866,172.735978 C1969.70541,171.761875 1966.39046,171.280988 1963.06019,171.310201 Z" fill="#487FC1"/><path d="M2073,196.046108 C2073,210.087426 2069.56286,220.753664 2062.68857,228.044821 C2055.81428,235.335978 2045.74835,238.987705 2032.49079,239 C2019.44192,239 2009.43123,235.311388 2002.45874,227.934163 C1995.48625,220.556938 1992,209.872257 1992,195.88012 C1992,181.986346 1995.46783,171.381586 2002.4035,164.065837 C2009.33917,156.750089 2019.41123,153.061477 2032.61969,153 C2045.86497,153 2055.90634,156.633283 2062.74381,163.89985 C2069.58127,171.166416 2073,181.881836 2073,196.046108 Z M2015.69789,196.046108 C2015.69789,212.165344 2021.29552,220.224962 2032.49079,220.224962 C2038.19891,220.224962 2042.41555,218.269998 2045.17754,214.341626 C2047.93953,210.413253 2049.30211,204.327043 2049.30211,196.046108 C2049.30211,187.765173 2047.90271,181.568304 2045.1223,177.603045 C2042.25536,173.595329 2037.53285,171.3452 2032.61969,171.645936 C2021.33849,171.633641 2015.69789,179.767031 2015.69789,196.046108 Z" fill="#487FC1"/><path d="M2118.37944,237 L2101.30639,177.218709 L2100.78959,177.218709 C2101.5771,187.411691 2101.97701,195.322571 2101.98931,200.951349 L2101.98931,237 L2082,237 L2082,154 L2111.97474,154 L2129.39848,212.91862 L2129.84146,212.91862 L2146.91451,154 L2177,154 L2177,237 L2156.27239,237 L2156.27239,200.602609 C2156.27239,198.767138 2156.27239,196.619637 2156.27239,194.306944 C2156.27239,191.99425 2156.58617,186.341 2157.0476,177.328837 L2156.53079,177.328837 L2139.69769,237 L2118.37944,237 Z" fill="#487FC1"/></g></svg>